<?xml version="1.0" encoding="UTF-8" standalone="no"?>
<svg
   height="24px"
   viewBox="0 -960 960 960"
   width="24px"
   fill="#000000"
   version="1.1"
   id="svg1"
   sodipodi:docname="link.svg"
   inkscape:version="1.3.2 (091e20ef0f, 2023-11-25)"
   xmlns:inkscape="http://www.inkscape.org/namespaces/inkscape"
   xmlns:sodipodi="http://sodipodi.sourceforge.net/DTD/sodipodi-0.dtd"
   xmlns="http://www.w3.org/2000/svg"
   xmlns:svg="http://www.w3.org/2000/svg">
  <defs
     id="defs1" />
  <sodipodi:namedview
     id="namedview1"
     pagecolor="#ffffff"
     bordercolor="#000000"
     borderopacity="0.25"
     inkscape:showpageshadow="2"
     inkscape:pageopacity="0.0"
     inkscape:pagecheckerboard="0"
     inkscape:deskcolor="#d1d1d1"
     inkscape:zoom="33.541667"
     inkscape:cx="11.985093"
     inkscape:cy="12"
     inkscape:window-width="1920"
     inkscape:window-height="1011"
     inkscape:window-x="0"
     inkscape:window-y="0"
     inkscape:window-maximized="1"
     inkscape:current-layer="svg1" />
  <path
     style="fill:#ffffff;stroke:#ffffff;stroke-width:3.60745;paint-order:markers fill stroke"
     d="m 296.81256,-401.6258 c -47.38512,-4.20608 -90.78469,-21.98612 -126.39555,-51.78208 -40.80899,-34.14524 -69.52211,-78.60296 -81.62614,-126.38516 -7.51016,-29.64724 -7.16983,-22.15096 -7.59545,-167.30095 l -0.3892,-132.73373 130.32981,0.44584 c 115.57537,0.3952 131.67993,0.67424 142.25533,2.4636 54.69012,9.25351 95.32832,29.5595 133.96108,66.93734 37.74248,36.51645 58.64836,75.17956 68.3814,126.4637 2.3604,12.43804 2.714,18.10404 2.714,43.51728 0,31.47704 -1.5288,43.94176 -8.37788,68.30132 -17.5706,62.49288 -67.99268,121.02936 -128.70336,149.41552 -36.64476,17.1338 -81.13048,24.5118 -124.55388,20.65736 z m 87.807,-63.01048 c 7.07736,-4.3154 8.60892,-12.1106 3.936,-20.03204 -1.452,-2.4612 -21.22724,-29.89024 -43.94536,-60.9538 -22.71812,-31.06364 -41.18564,-56.82264 -41.03896,-57.24224 0.276,-0.7928 6.20036,-1.4176 92.15568,-9.72036 34.78172,-3.3596 53.17508,-5.61384 55.81888,-6.84056 2.1688,-1.0064 5.38856,-3.7248 7.15524,-6.041 2.6956,-3.5344 3.2124,-5.40936 3.2124,-11.66156 0,-6.29448 -0.4624,-7.94892 -2.9812,-10.66528 -5.26048,-5.67284 -183.52576,-165.11222 -188.01148,-168.15631 -3.004,-2.03856 -5.95456,-2.93256 -9.67872,-2.93256 -4.5982,0 -5.92652,0.60348 -9.37396,4.25882 -4.24976,4.50606 -5.02284,8.44239 -2.804,14.27801 0.6668,1.75396 20.57956,29.99538 44.25056,62.75875 23.67092,32.76337 42.84708,59.73725 42.61364,59.94197 -0.232,0.204 -32.62324,3.4436 -71.97728,7.19792 -81.03361,7.73008 -79.99896,7.51924 -84.96895,17.31532 -3.27968,6.4644 -3.4176,12.50852 -0.3984,17.45988 2.57716,4.22644 185.75003,168.07884 191.41347,171.2238 4.87356,2.7064 9.98316,2.6404 14.62312,-0.188 z"
     id="path2" />
  <path
     d="m 320,-400 q -100,0 -169,-70 -69,-70 -71,-170 v -240 h 240 q 100,2 170,71 70,69 70,169 0,100 -70,170 -70,70 -170,70 z m 47,-67 -184,-164 q -9,-8 -5,-19 4,-11 16,-13 l 144,-14 -86,-119 q -3,-5 -3.5,-9.5 -0.5,-4.5 3.5,-8.5 4,-5 10,-4.5 6,0.5 11,4.5 l 183,164 q 9,8 5,19 -4,11 -16,13 l -144,14 87,119 q 3,5 3,9.5 0,4.5 -4,8.5 -4,4 -9.5,4 -5.5,0 -10.5,-4 z m -47,147 q 56,0 105.5,-17.5 Q 475,-355 516,-387 l 55,55 q 6,6 13.5,9 7.5,3 15.5,3 17,0 28.5,-11.5 11.5,-11.5 11.5,-28.5 0,-8 -3,-15.5 -3,-7.5 -9,-13.5 l -55,-55 q 32,-41 49.5,-90.5 Q 640,-584 640,-640 q 0,-134 -93,-227 -93,-93 -227,-93 H 0 v 320 q 0,134 93,227 93,93 227,93 z m 0,-320 z"
     id="path1" />
</svg>
